<?xml version="1.0" encoding="utf-8"?>
<!-- Generator: Adobe Illustrator 22.1.0, SVG Export Plug-In . SVG Version: 6.00 Build 0)  -->
<svg version="1.1" id="Layer_1" xmlns="http://www.w3.org/2000/svg" xmlns:xlink="http://www.w3.org/1999/xlink" x="0px" y="0px"
	 viewBox="0 0 64 30" style="enable-background:new 0 0 64 30;" xml:space="preserve">
<style type="text/css">
	.st0{fill:#3b579d;}
</style>
<g>
	<path class="st0" d="M14.7,22.2v-7h2.4l0.4-2.7h-2.7v-1.8c0-0.8,0.2-1.3,1.4-1.3h1.5V6.9c-0.7-0.1-1.4-0.1-2.1-0.1
		C13.6,6.6,12,8,11.9,9.8c0,0.2,0,0.4,0,0.6v2H9.5v2.7h2.4v7H14.7z"/>
	<polygon class="st0" points="58.6,0 58.2,0.4 61.8,1.3 57.9,5.2 58.6,5.9 62.4,2 63.3,5.6 63.7,5.1 63.7,0 	"/>
	<path class="st0" d="M28.5,14h-0.1c-0.4-0.3-0.8-0.5-1.3-0.5c-0.6,0-1,0.2-1,0.7s0.3,0.7,1.2,1c1.2,0.4,1.9,0.7,1.9,1.8
		s-0.7,1.8-2.2,1.8c-0.8,0-1.5-0.2-2.1-0.7l0.4-0.7h0.1c0.5,0.4,1.1,0.6,1.7,0.6c0.7,0,1.1-0.3,1.1-0.8c0-0.6-0.3-0.8-1.5-1.1
		c-1.2-0.4-1.6-0.9-1.6-1.8c0-1.1,0.9-1.7,2-1.7c0.7,0,1.3,0.2,1.9,0.6L28.5,14z"/>
	<path class="st0" d="M31.4,13.7L31.4,13.7c0.6-0.6,1.4-0.9,2.1-0.9c1.2,0,1.7,0.6,1.7,1.7v4.3h-1.1v-4c0-0.8-0.3-1.1-1-1.1
		c-0.6,0-1.2,0.3-1.6,0.7v4.4h-1.1v-8.4l0.9-0.1h0.2L31.4,13.7z"/>
	<path class="st0" d="M36.5,13.2c0.7-0.3,1.4-0.5,2.2-0.5c1.4,0,2.1,0.6,2.1,1.7v3.2c0,0.4,0.2,0.5,0.4,0.5c0.1,0,0.2,0,0.3-0.1h0.1
		l0.1,0.6c-0.3,0.1-0.5,0.2-0.8,0.2c-0.6,0-1-0.2-1.1-0.9h-0.1c-0.4,0.6-1,0.9-1.7,0.9c-1,0-1.7-0.5-1.7-1.5s0.5-1.3,1.6-1.7
		l1.7-0.5v-0.5c0-0.8-0.2-1.1-1.2-1.1c-0.5,0-1.1,0.2-1.6,0.4h-0.1L36.5,13.2z M39.7,17.5v-1.7l-1.3,0.4c-0.7,0.2-0.9,0.5-0.9,1
		c0,0.7,0.4,0.9,0.9,0.9C38.8,18.1,39.3,17.8,39.7,17.5L39.7,17.5z"/>
	<path class="st0" d="M43.7,13.7c0.3-0.6,0.8-0.9,1.5-0.9c0.2,0,0.4,0,0.6,0.1l-0.2,1h-0.1c-0.2-0.1-0.3-0.1-0.5-0.1
		c-0.5,0-1,0.3-1.2,0.7v4.3h-1.1v-5.9l0.8-0.1h0.2v0.9L43.7,13.7z"/>
	<path class="st0" d="M49.1,18.8c-1.8,0-2.9-1.2-2.9-3.1s1.2-3,2.6-3c1.7,0,2.5,1.1,2.5,3.3h-3.9c0.1,1.2,0.6,2.1,1.9,2.1
		c0.6,0,1.1-0.2,1.6-0.6h0.1l0.3,0.6C50.6,18.6,49.9,18.9,49.1,18.8z M50.2,15.2c0-1.1-0.4-1.8-1.4-1.8c-1,0-1.4,0.7-1.5,1.9h2.9
		V15.2z"/>
	<path class="st0" d="M61.6,7.3L60.9,8c3.9,6.7,1.5,15.3-5.2,19.2c-2.1,1.2-4.5,1.8-6.9,1.9H15C7.2,29.1,0.9,22.8,0.9,15
		S7.2,0.9,15,0.9h33.7c2.5,0,5,0.7,7.2,2l0.7-0.7C54.2,0.8,51.5,0,48.7,0H15C6.7,0,0,6.7,0,15s6.7,15,15,15h33.7c8.3,0,15-6.7,15-15
		C63.7,12.3,63,9.7,61.6,7.3z"/>
</g>
</svg>
