<?xml version="1.0" encoding="utf-8"?>
<!-- Generator: Adobe Illustrator 22.1.0, SVG Export Plug-In . SVG Version: 6.00 Build 0)  -->
<svg version="1.1" id="Layer_1" xmlns="http://www.w3.org/2000/svg" xmlns:xlink="http://www.w3.org/1999/xlink" x="0px" y="0px"
	 viewBox="0 0 30 30" style="enable-background:new 0 0 30 30;" xml:space="preserve">
<style type="text/css">
	.st0{fill:#075e7c;}
</style>
<g>
	<path class="st0" d="M27.9,7.3L27.2,8c3.9,6.8,1.6,15.4-5.2,19.3S6.6,28.9,2.7,22.1S1.2,6.7,7.9,2.8c4.4-2.5,9.9-2.5,14.2,0.1
		l0.7-0.7C15.8-2.1,6.6,0.1,2.2,7.1S0.1,23.4,7.1,27.8s16.3,2.1,20.6-4.9C30.7,18.1,30.7,12.1,27.9,7.3L27.9,7.3z"/>
	<polygon class="st0" points="24.9,0 24.4,0.5 28.1,1.3 24.2,5.2 24.9,5.9 28.7,2 29.6,5.6 30,5.1 30,0 	"/>
	<path class="st0" d="M24.4,11.5v-1.2l-1.2-1.2H6.8l-1.2,1.2v9.4l1.2,1.2h16.4l1.2-1.2V11.5z M23.2,18.5L20.5,13l2.7-1.3V18.5z
		 M6.8,11.6l2.7,1.4l-2.7,5.6L6.8,11.6z M15,15.7l4.4-2.2l3.2,6.2H7.4l3.2-6.2L15,15.7z M23.2,10.3L23.2,10.3l-8.2,4l-8.2-4H23.2z"
		/>
</g>
</svg>
