<?xml version="1.0" encoding="utf-8"?>
<!-- Generator: Adobe Illustrator 22.1.0, SVG Export Plug-In . SVG Version: 6.00 Build 0)  -->
<svg version="1.1" id="Layer_1" xmlns="http://www.w3.org/2000/svg" xmlns:xlink="http://www.w3.org/1999/xlink" x="0px" y="0px"
	 viewBox="0 0 30 30" style="enable-background:new 0 0 30 30;" xml:space="preserve">
<style type="text/css">
	.st0{fill:#1da1f2;}
</style>
<g>
	<g>
		<path class="st0" d="M11.9,21.8c5.4,0,9.8-4.3,9.8-9.7c0,0,0-0.1,0-0.1c0-0.1,0-0.3,0-0.4c0.7-0.5,1.3-1.1,1.7-1.8
			c-0.6,0.3-1.3,0.5-2,0.5c0.7-0.4,1.3-1.1,1.5-1.9c-0.7,0.4-1.4,0.7-2.2,0.8c-1.3-1.4-3.5-1.4-4.9-0.1c-0.9,0.8-1.3,2.1-1,3.3
			c-2.8-0.1-5.4-1.5-7.1-3.7c-0.9,1.6-0.4,3.6,1.1,4.6c-0.5,0-1.1-0.2-1.6-0.4l0,0c0,1.7,1.2,3.1,2.8,3.4c-0.5,0.2-1.1,0.2-1.6,0.1
			c0.5,1.4,1.8,2.4,3.2,2.4c-1.2,1-2.7,1.5-4.3,1.5c-0.3,0-0.5,0-0.8,0C8.2,21.3,10,21.9,11.9,21.8"/>
		<path class="st0" d="M27.9,7.3L27.2,8c3.9,6.8,1.6,15.4-5.2,19.3S6.6,28.8,2.7,22.1S1.2,6.7,7.9,2.8c4.4-2.5,9.9-2.5,14.2,0.1
			l0.7-0.7C15.8-2.1,6.6,0.1,2.2,7.1S0.1,23.4,7.1,27.8s16.3,2.1,20.6-4.9C30.7,18.1,30.7,12.1,27.9,7.3z"/>
	</g>
	<polygon class="st0" points="24.9,0 24.4,0.5 28.1,1.3 24.2,5.2 24.9,5.9 28.7,2 29.6,5.6 30,5.1 30,0 	"/>
</g>
</svg>
