<?xml version="1.0" encoding="utf-8"?>
<!-- Generator: Adobe Illustrator 22.1.0, SVG Export Plug-In . SVG Version: 6.00 Build 0)  -->
<!DOCTYPE svg PUBLIC "-//W3C//DTD SVG 1.1//EN" "http://www.w3.org/Graphics/SVG/1.1/DTD/svg11.dtd">
<svg version="1.1" id="Layer_1" xmlns="http://www.w3.org/2000/svg" xmlns:xlink="http://www.w3.org/1999/xlink" x="0px" y="0px"
	 viewBox="0 0 250 250" style="enable-background:new 0 0 250 250;" xml:space="preserve">
<style type="text/css">
	.st0{fill:#ffffff;}
	.st1{fill:#000000;}
</style>
<title>telegraph_diamond</title>
<g id="Layer_2_1_">
	<g id="Layer_1-2">
			<rect x="36.6" y="36.6" transform="matrix(0.7071 -0.7071 0.7071 0.7071 -51.7759 124.9974)" class="st0" width="176.8" height="176.8"/>
		<path class="st1" d="M79.9,137.2c0-19,14.4-32.2,27.8-38.1l0.9,1.2c-4.9,5.6-8.3,11.1-8.3,22.6c0,13.2,3.5,22.3,9,28.4
			c1.9-2.3,2.9-5.1,2.9-8.1v-19.8l24.1-17.3l1.1,1.4c-2.3,3-3.5,6.7-3.4,10.5v12.6c0,8.8-14.4,18.2-23.4,21.9
			c5.9,5.8,14.3,8.2,23.2,8.2c3,0,6-0.2,9-0.6V105c-7.9-0.5-15.3-2.6-22.2-4.4c-7.3-2.1-14.7-4.1-21.1-4.1
			c-9.7,0-21.6,3.3-21.7,17.5c0,1.2,0.2,2.6,0.3,4.1l-1.8,0.6c-1.6-4.1-2.5-8.5-2.6-12.9c-0.2-17.1,12.4-32.2,32.6-32.2
			c8.5,0,16.6,2.1,23.6,4.1c7.6,2.1,15,4.1,22.6,4.1c3.8,0,6.1-2,6.1-5.6s-1.8-5.5-4.7-6.2l0.3-1.8c8.7,1.5,18.2,6.7,18.2,17.6
			c0,13.2-9.6,19.4-25.7,19.4H145v54.7c10.6-2,17.6-7,22.9-15.3l1.7,0.9c-5.9,18.7-19.7,36.4-44.3,36.4
			C100.2,181.9,79.8,167.3,79.9,137.2 M146.6,98.5c-17.9,0-34-8.8-47.1-8.8c-8.4,0-18.1,3.4-21.5,13.1l0.5,0.2
			c3.9-6.7,12.9-8.8,21-8.8c13.1,0,29.2,8.8,47.1,8.8c14.4,0,22.8-4.9,24.1-16.4l-0.8-0.1C167.9,95.3,161,98.5,146.6,98.5
			 M95.2,109.4c-6.7,6.7-12.9,15.9-12.9,27.8c0,28.1,18.9,42.2,42.8,42.2c14.9,0,25.3-8.1,31.3-14.1l-0.4-0.6
			c-7,5.6-16.5,10.2-30.9,10.2c-19.3,0-37.9-11.8-37.9-37.7c0.1-9.7,3.1-19.2,8.6-27.2L95.2,109.4z M119,141.9l-0.1-20.7l-4.6,3.2
			v19.3c0,1.8-0.4,3.6-1.1,5.3h0.6C116.7,147.2,119,144.4,119,141.9"/>
	</g>
</g>
</svg>
