<?xml version="1.0" encoding="utf-8"?>
<!-- Generator: Adobe Illustrator 22.1.0, SVG Export Plug-In . SVG Version: 6.00 Build 0)  -->
<svg version="1.1" id="Layer_1" xmlns="http://www.w3.org/2000/svg" xmlns:xlink="http://www.w3.org/1999/xlink" x="0px" y="0px"
	 viewBox="0 0 152 24.8" style="enable-background:new 0 0 152 24.8;" xml:space="preserve">
<style type="text/css">
	.st0{fill:#1D1D1B;}
</style>
<g>
	<path class="st0" d="M19.7,22.6c2.8-0.2,5.5-1.1,5.5-4.1V9.4l-1.2-1.3l-1.4,1.4v6.9l1.1,1l-2.6,2.3h-0.2l-2.6-2.2l0.7-0.7V2.8
		c0-1.1-0.9-1.6-1.5-1.8V0.8c0.2-0.1,0.6-0.2,1.1-0.2c0.9,0,1.7,0.5,1.9,1.1h0.1c0.5-0.8,1.4-1.1,2.2-1.1c0.2,0,0.5,0,0.8,0.1v0.3
		c-0.5,0.1-1.1,0.7-1.1,2.1v5.9l3.4-3.3h0.2c0.2,0.2,1.7,1.6,2,1.8c0.1,0.1,0.3,0.1,0.5,0.1c0.3,0,0.5-0.1,0.7-0.2v0.4
		c-0.3,0.2-0.6,0.7-0.6,1.3v8c0,3.5-3.9,5.7-9.1,6V22.6z M18.4,1l0,0.1c0.5,0.2,1,0.6,1,1.5V17l-0.6,0.6l2.2,1.8l0.6-0.5l-1.8-1.4
		l0.3-0.3V2.7C20.2,1.6,19.1,1,18.4,1 M24.4,21.7c1-0.7,2-1.5,2-3V8.9l-1.6-1.6l-0.6,0.6l1.4,1.4v9.4c0,1.3-0.5,2.3-1.3,2.9
		L24.4,21.7z"/>
	<path class="st0" d="M31,8.8c1.5-0.7,3.8-2.1,5.3-3.2h0.3c1,1,2.4,2.7,3.7,3.8v0.3l-5.7,3.7v2.3c0.6,0.4,2.2,1.2,3.2,1.5l2.3-2.2
		l0.3,0.3l-4.6,4.4h-0.3c-1.5-0.7-3.5-1.5-4.8-2.2c0.2-0.5,0.3-1.6,0.3-3.1V8.8z M36.2,18.8c-1.5-0.7-2.9-1.2-4.1-1.9
		c0.1-0.5,0.1-1,0.1-2.5V8.6l-0.8,0.4v5.4c0,1.5,0,2.4-0.2,2.9c1.2,0.7,2.9,1.4,4.5,2.1L36.2,18.8z M34.6,12.9l2.5-1.7
		c-0.9-1-1.8-2.1-2.5-2.9V12.9z M35.4,7.3l-0.7,0.5c0.8,0.9,1.8,2.1,2.8,3.2l0.7-0.5C37.2,9.4,36.2,8.2,35.4,7.3"/>
	<path class="st0" d="M142.3,22.6c2.8-0.2,5.5-1.1,5.5-4.1V9.3l-1.2-1.3l-1.4,1.4v6.9l1.1,1l-2.6,2.3h-0.2l-2.6-2.2l0.7-0.7V2.7
		c0-1.1-0.9-1.6-1.5-1.8V0.7c0.2-0.1,0.6-0.2,1.1-0.2c0.9,0,1.7,0.5,1.9,1.1h0.1c0.5-0.8,1.4-1.1,2.2-1.1c0.2,0,0.5,0,0.8,0.1v0.3
		c-0.5,0.1-1.1,0.7-1.1,2.1v5.9l3.4-3.3h0.2c0.2,0.2,1.7,1.6,2,1.8c0.1,0.1,0.3,0.1,0.5,0.1c0.3,0,0.5-0.1,0.7-0.2v0.5
		c-0.3,0.2-0.6,0.7-0.6,1.3v7.9c0,3.5-3.9,5.7-9.1,6V22.6z M141,0.9l0,0.1c0.5,0.2,1,0.6,1,1.5V17l-0.6,0.6l2.2,1.8l0.6-0.5
		l-1.8-1.4l0.3-0.3V2.7C142.8,1.6,141.8,1,141,0.9 M147,21.6c1-0.7,2-1.5,2-3V8.8l-1.6-1.6l-0.6,0.6l1.4,1.4v9.4
		c0,1.3-0.5,2.3-1.3,2.9L147,21.6z"/>
	<path class="st0" d="M64.6,8.8c1.5-0.7,3.8-2.1,5.3-3.2h0.3c1,1,2.4,2.7,3.7,3.8v0.3l-5.7,3.7v2.3c0.6,0.4,2.2,1.2,3.2,1.5l2.3-2.2
		l0.3,0.3l-4.6,4.4h-0.3c-1.5-0.7-3.5-1.5-4.8-2.2c0.2-0.5,0.3-1.6,0.3-3.1V8.8z M69.8,18.8c-1.5-0.7-2.9-1.2-4.1-1.9
		c0.1-0.5,0.1-1,0.1-2.5V8.6L65,9v5.4c0,1.5,0,2.4-0.2,2.9c1.2,0.7,2.9,1.4,4.5,2.1L69.8,18.8z M68.2,12.9l2.5-1.7
		c-0.9-1-1.8-2.1-2.5-2.9V12.9z M68.9,7.3l-0.7,0.5C69,8.7,70,9.9,71,11l0.7-0.5C70.8,9.4,69.7,8.2,68.9,7.3"/>
	<path class="st0" d="M78.9,2.4V16c0,0.6,0.6,1.1,1.1,1.2l0.8-0.8l0.2,0.3l-2.9,3H78c-1.1-0.2-2.7-1.2-2.7-2.9V4.1l-0.8-0.8
		l-0.9,0.8l-0.3-0.3l3.3-3.3h0.2L78.9,2.4z M78.6,18.7c-1-0.3-2-1-2-2.4V3.5l-1.1-1.2l-0.6,0.6l0.9,1v12.8c0,1.5,1.2,2.4,2.3,2.7
		L78.6,18.7z"/>
	<path class="st0" d="M82.4,8.8c1.5-0.7,3.8-2.1,5.3-3.2h0.3c1,1,2.4,2.7,3.7,3.8v0.3L86,13.4v2.3c0.6,0.4,2.2,1.2,3.2,1.5l2.3-2.2
		l0.3,0.3l-4.6,4.4h-0.3c-1.5-0.7-3.5-1.5-4.8-2.2c0.2-0.5,0.3-1.6,0.3-3.1V8.8z M87.6,18.8c-1.5-0.7-2.9-1.2-4.1-1.9
		c0.1-0.5,0.1-1,0.1-2.5V8.6L82.8,9v5.4c0,1.5,0,2.4-0.2,2.9c1.2,0.7,2.9,1.4,4.5,2.1L87.6,18.8z M86,12.9l2.5-1.7
		c-0.9-1-1.8-2.1-2.5-2.9V12.9z M86.8,7.2l-0.7,0.5c0.8,0.9,1.8,2.1,2.8,3.2l0.7-0.5C88.6,9.4,87.6,8.1,86.8,7.2"/>
	<path class="st0" d="M110,9.3V16c0,0.6,0.5,1.1,1.1,1.2l0.8-0.8l0.2,0.3l-2.9,3H109c-1.1-0.2-2.7-1.2-2.7-2.9V9.1l-0.8-0.8
		l-0.8,0.8l-0.3-0.3l3.3-3.3h0.2l2.1,2v1.1l2.6-3.1h0.2c0.5,0.5,1.4,1.3,2.1,1.9v0.1l-2.2,2.6h-0.1c-0.6-0.5-1.4-1.3-1.9-1.7
		L110,9.3z M109.6,18.7c-1.1-0.3-2.1-1-2.1-2.4V8.5l-1.1-1.1L105.8,8l0.9,1v7.7c0,1.5,1.2,2.4,2.3,2.7L109.6,18.7z M111,8.1
		c0.5,0.4,1.1,1,1.6,1.5l0.5-0.6c-0.5-0.5-1.3-1.1-1.6-1.5L111,8.1z"/>
	<path class="st0" d="M118.3,19.7l-3.2-2.1v-4.1c0.8-0.6,2.4-1.7,3.2-2.3c-1.2-0.7-2.3-1.5-2.9-2.3V8.7c1.9-1.1,3.2-2,4.4-3.1h0.2
		c0,0,3.9,1.8,4.1,1.9c0.2,0.1,0.4,0.2,0.6,0.2c0.3,0,0.5-0.1,0.8-0.2v0.4c-0.3,0.2-0.6,0.6-0.6,1.2V16c0,0.7,0.6,1.2,1.1,1.3
		l0.8-0.8l0.2,0.3l-2.9,3h-0.2c-1.1-0.3-2.4-1.4-2.6-2.7l-2.8,2.7H118.3z M119,18.7l-2.6-1.8v-3.8l-0.8,0.6v3.7l2.8,1.9L119,18.7z
		 M121.2,12V9.8l-3.7-2c-0.3,0.2-1.3,0.8-1.6,1C116.8,10,119.1,11.5,121.2,12 M124.5,18.8c-1-0.4-2-1.1-2-2.5V9.1l-3.9-2
		c-0.1,0.1-0.6,0.4-0.7,0.5l3.8,2v7c0,1.4,1.2,2.4,2.3,2.8L124.5,18.8z M121.2,16.6v-4.2c-0.8-0.2-1.7-0.6-2.5-1v5.1l1.5,0.9
		L121.2,16.6z"/>
	<path class="st0" d="M93,17.5V8.8l4.6-3.2h0.3c0.9,0.4,3.8,1.6,4.2,1.8c0.1,0.1,0.3,0.1,0.5,0.1c0.3,0,0.6-0.1,0.9-0.2v0.5
		c-0.3,0.2-0.6,0.8-0.6,1.2v7.4c0,1.7,0.4,2.7,1.1,3.4v0.3c-1,1-3.4,3.4-4.4,4.7h-0.2c-1-0.6-2.7-1-4.1-1c-1,0-2.2,0.3-3.1,1
		l-0.2-0.2c0.8-1.9,2.5-3.7,4.6-3.7c1.4,0,3.1,0.6,4.6,1.4c-1-1.2-2-3.3-2-5.1l-2.7,2.6h-0.2L93,17.5z M95.2,22.6
		c-1,0-1.9,0.5-2.4,1.2v0.1c0.6-0.3,1.3-0.6,2.4-0.6c1.4,0,3.1,0.4,4.1,0.9l0.5-0.6C98.6,23.1,97,22.6,95.2,22.6 M96.3,19.3l0.6-0.6
		l-2.8-1.8V8.5l-0.8,0.6v8.3L96.3,19.3z M100.4,8.6L96.6,7v0.8l3,1.3V17c0,1.7,0.7,3.5,1.9,4.9l0.6-0.6c-1-1.3-1.7-2.8-1.7-4.5V8.6z
		 M99.2,16.5V9.4l-2.6-1.1v8.1l1.6,1.1L99.2,16.5z"/>
	<path class="st0" d="M132.5,8.9l3.4-3.2h0.2c0.2,0.2,1.8,1.6,2,1.8c0.1,0.1,0.3,0.1,0.5,0.1c0.3,0,0.5-0.1,0.7-0.2v0.5
		c-0.3,0.2-0.6,0.7-0.6,1.3v8.3c-1.5,0.3-2.6,1.1-3.9,2.6h-0.1l-2.3-0.5v1.8l1.2,1.1l-2.8,2.3h-0.1l-2.6-2.2l0.7-0.7v-3.1
		c-0.3-0.1-0.8-0.1-1.1-0.2v-0.4c0.3-0.1,1.1-0.9,1.1-1.6V9.2l-0.8-0.8l-0.8,0.8l-0.3-0.3l3.3-3.3h0.2l2,2V8.9z M129.3,22l-0.6,0.5
		l2.1,1.8l0.6-0.6l-1.6-1.4l0.3-0.3V8.6L129,7.5L128.4,8l0.9,1V22z M135.1,16.9V9.4l-1.2-1.3l-1.4,1.3v6.9
		C133.1,16.5,134.8,16.8,135.1,16.9 M134.7,19.6c0.1-0.2,0.4-0.5,0.6-0.7l-2.8-0.6v0.8L134.7,19.6z M134.1,7.9l1.4,1.4v7.6l0.8-0.5
		V8.8l-1.6-1.6L134.1,7.9z"/>
	<path class="st0" d="M1.1,12.1c0-3.3,2.5-5.6,4.9-6.7l0.2,0.2c-0.9,1-1.5,1.9-1.5,4c0,2.3,0.6,3.9,1.6,5c0.3-0.3,0.5-0.9,0.5-1.4
		V9.7l4.2-3l0.2,0.2c-0.4,0.5-0.6,1-0.6,1.8v2.2c0,1.5-2.5,3.2-4.1,3.8c1,1,2.5,1.4,4.1,1.4c0.6,0,1.1,0,1.6-0.1V6.4
		C10.7,6.4,9.4,6,8.2,5.7C6.9,5.3,5.6,5,4.5,5C2.8,5,0.7,5.5,0.7,8c0,0.2,0,0.5,0.1,0.7L0.5,8.8C0.2,8.1,0,7.3,0,6.6
		C0,3.6,2.2,1,5.7,1c1.5,0,2.9,0.4,4.1,0.7c1.3,0.4,2.6,0.7,4,0.7c0.7,0,1.1-0.3,1.1-1c0-0.6-0.3-1-0.8-1.1L14.1,0
		c1.5,0.3,3.2,1.2,3.2,3.1c0,2.3-1.7,3.4-4.5,3.4h-0.3V16c1.9-0.3,3.1-1.2,4-2.7l0.3,0.2c-1,3.3-3.4,6.4-7.7,6.4
		C4.6,19.9,1.1,17.3,1.1,12.1 M12.7,5.3c-3.1,0-5.9-1.5-8.2-1.5c-1.5,0-3.2,0.6-3.8,2.3l0.1,0c0.7-1.2,2.3-1.5,3.7-1.5
		c2.3,0,5.1,1.5,8.2,1.5c2.5,0,4-0.9,4.2-2.9l-0.1,0C16.5,4.8,15.3,5.3,12.7,5.3 M3.8,7.2C2.6,8.4,1.5,10,1.5,12.1
		c0,4.9,3.3,7.4,7.5,7.4c2.6,0,4.4-1.4,5.5-2.5l-0.1-0.1c-1.2,1-2.9,1.8-5.4,1.8c-3.4,0-6.6-2.1-6.6-6.6C2.4,10.3,3,8.5,3.8,7.2
		L3.8,7.2z M7.9,12.9l0-3.6L7.1,9.8v3.4c0,0.4-0.1,0.7-0.2,0.9l0.1,0C7.5,13.8,7.9,13.3,7.9,12.9"/>
	<path class="st0" d="M47.3,12.1c0-3.3,2.5-5.6,4.9-6.7l0.2,0.2c-0.9,1-1.5,1.9-1.5,4c0,2.3,0.6,3.9,1.6,5c0.3-0.3,0.5-0.9,0.5-1.4
		V9.7l4.2-3l0.2,0.2c-0.4,0.5-0.6,1-0.6,1.8v2.2c0,1.5-2.5,3.2-4.1,3.8c1,1,2.5,1.4,4.1,1.4c0.6,0,1.1,0,1.6-0.1V6.4
		c-1.4-0.1-2.7-0.5-3.9-0.8C53.2,5.3,51.9,5,50.7,5C49,5,47,5.5,46.9,8c0,0.2,0,0.5,0.1,0.7l-0.3,0.1c-0.3-0.8-0.5-1.5-0.5-2.3
		c0-3,2.2-5.6,5.7-5.6c1.5,0,2.9,0.4,4.1,0.7c1.3,0.4,2.6,0.7,4,0.7c0.7,0,1.1-0.3,1.1-1c0-0.6-0.3-1-0.8-1.1L60.3,0
		c1.5,0.3,3.2,1.2,3.2,3.1c0,2.3-1.7,3.4-4.5,3.4h-0.3V16c1.9-0.3,3.1-1.2,4-2.7l0.3,0.2c-1,3.3-3.4,6.4-7.7,6.4
		C50.9,19.9,47.3,17.3,47.3,12.1 M59,5.3c-3.1,0-5.9-1.5-8.2-1.5c-1.5,0-3.2,0.6-3.8,2.3l0.1,0c0.7-1.2,2.3-1.5,3.7-1.5
		c2.3,0,5.1,1.5,8.2,1.5c2.5,0,4-0.9,4.2-2.9l-0.1,0C62.7,4.8,61.5,5.3,59,5.3 M50,7.2c-1.2,1.2-2.3,2.8-2.3,4.9
		c0,4.9,3.3,7.4,7.5,7.4c2.6,0,4.4-1.4,5.5-2.5l-0.1-0.1c-1.2,1-2.9,1.8-5.4,1.8c-3.4,0-6.6-2.1-6.6-6.6C48.6,10.3,49.2,8.5,50,7.2
		L50,7.2z M54.2,12.9l0-3.6l-0.8,0.6v3.4c0,0.4-0.1,0.7-0.2,0.9l0.1,0C53.8,13.8,54.2,13.3,54.2,12.9"/>
</g>
</svg>
